<?xml version="1.0" encoding="utf-8"?>
<!-- Generated by IcoMoon.io -->
<!DOCTYPE svg PUBLIC "-//W3C//DTD SVG 1.1//EN" "http://www.w3.org/Graphics/SVG/1.1/DTD/svg11.dtd">
<svg version="1.1" xmlns="http://www.w3.org/2000/svg" xmlns:xlink="http://www.w3.org/1999/xlink" width="496" height="144" viewBox="0 0 496 144">
<svg id="icon-music-plus" width="16" height="16" viewBox="0 0 16 16" x="0" y="0">
<path fill="#000" d="M15 0h1v11.5c0 1.381-1.567 2.5-3.5 2.5s-3.5-1.119-3.5-2.5c0-1.381 1.567-2.5 3.5-2.5 0.979 0 1.865 0.287 2.5 0.751v-5.751l-8 1.778v7.722c0 1.381-1.567 2.5-3.5 2.5s-3.5-1.119-3.5-2.5c0-1.381 1.567-2.5 3.5-2.5 0.979 0 1.865 0.287 2.5 0.751v-9.751l9-2z"></path>
<path fill="#000" d="M4.844 1.892h-1.719v-1.719c0-0.086-0.070-0.156-0.156-0.156h-0.938c-0.086 0-0.156 0.070-0.156 0.156v1.719h-1.719c-0.086 0-0.156 0.070-0.156 0.156v0.938c0 0.086 0.070 0.156 0.156 0.156h1.719v1.719c0 0.086 0.070 0.156 0.156 0.156h0.938c0.086 0 0.156-0.070 0.156-0.156v-1.719h1.719c0.086 0 0.156-0.070 0.156-0.156v-0.938c0-0.086-0.070-0.156-0.156-0.156z"></path>
</svg>
<svg id="icon-magnet-full" width="16" height="16" viewBox="0 0 16 16" x="32" y="0">
<path fill="#000" d="M14 0h-4l1 9c0 1.657-1.343 3-3 3s-3-1.343-3-3l1-9h-4l-1 9c0 3.866 3.134 7 7 7s7-3.134 7-7l-1-9zM12.154 13.154c-1.11 1.11-2.585 1.721-4.154 1.721s-3.045-0.611-4.154-1.721c-1.095-1.095-1.705-2.548-1.72-4.095l0.564-5.075h1.736l-0.55 4.953v0.062c0 1.102 0.429 2.138 1.208 2.917s1.815 1.208 2.917 1.208c1.102 0 2.138-0.429 2.917-1.208s1.208-1.815 1.208-2.917v-0.062l-0.007-0.062-0.543-4.891h1.736l0.564 5.075c-0.015 1.547-0.625 2.999-1.72 4.095z"></path>
<path fill="#000" d="M7.75 15.25c-1.964-0.144 0.177 0.98-5.25-3-0.708-0.519-0.75-2.441-0.75-3.25 0-0.123 0.339-1.054 0.5-2.5 0.152-1.366 0.25-2.746 0.25-2.75s0.538-0.092 1 0l1.25 0.25-0.25 2.5c-0.136 1.364-0.25 2.638-0.25 2.75-0.001 0.415 0.091 0.825 0.25 1.25 0.377 1.010 0.793 1.808 1.767 2.252 0.574 0.262 1.090 0.373 1.726 0.373 1.137-0 2.137-0.413 2.934-1.208 0.727-0.726 1.142-1.668 1.197-2.715 0.013-0.244-0.379-0.485-0.624-2.702-0.147-1.325 0.006-2.467 0-2.5h-0.25l1.25-0.25c0.37-0.074 1 0.24 1 0.25s0.348 1.134 0.5 2.5c0.152 1.366 0.25 2.657 0.25 2.75s0.012 0.374 0 0.5c-0.184 1.85-1.399 3.785-3 4.75-1.023 0.617-2.29 0.838-3.5 0.75z"></path>
</svg>
<svg id="icon-bumplimit" width="16" height="16" viewBox="0 0 16 16" x="64" y="0">
<path fill="#000" d="M8 1.45l6.705 13.363h-13.409l6.705-13.363zM8 0c-0.345 0-0.69 0.233-0.951 0.698l-6.829 13.611c-0.523 0.93-0.078 1.691 0.989 1.691h13.583c1.067 0 1.512-0.761 0.989-1.691v0l-6.829-13.611c-0.261-0.465-0.607-0.698-0.951-0.698v0z"></path>
<path stroke="#000" fill="#000" stroke-width="0.382" stroke-miterlimit="4" stroke-linecap="butt" stroke-linejoin="miter" d="M3.162 12.867h9.849v0.824h-9.849v-0.824z"></path>
<path fill="#000" d="M5.004 12.648c0.219-0.287 0.679-0.694 1.014-0.898 1.481-0.9 3.353-0.777 4.667 0.305 0.197 0.162 0.452 0.423 0.564 0.577l0.056 0.077-6.349 0.001 0.047-0.061z"></path>
</svg>
<svg id="icon-pin" width="16" height="16" viewBox="0 0 16 16" x="96" y="0">
<path fill="#000" d="M8.5 0l-1.5 1.5 1.5 1.5-3.5 4h-3.5l2.75 2.75-4.25 5.634v0.616h0.616l5.635-4.25 2.75 2.75v-3.5l4-3.5 1.5 1.5 1.5-1.5zM6.5 6.75l-0.5 1 3.5-3.75-0.75 0.25z"></path>
</svg>
<svg id="icon-unpin" width="16" height="16" viewBox="0 0 16 16" x="128" y="0">
<path fill="#000" d="M8.5 0l-1.5 1.5 1.5 1.5-3.5 4h-3.5l2.75 2.75-4.25 5.634v0.616h0.616l5.635-4.25 2.75 2.75v-3.5l4-3.5 1.5 1.5 1.5-1.5zM8.25 10l-2.25-2.25 3.5-3.75 2.5 2.5z"></path>
</svg>
<svg id="icon-home" width="16" height="16" viewBox="0 0 16 16" x="0" y="32">
<path d="M16 9.5l-3-3v-4.5h-2v2.5l-3-3-8 8v0.5h2v5h5v-3h2v3h5v-5h2z"></path>
</svg>
<svg id="icon-pencil" width="16" height="16" viewBox="0 0 16 16" x="32" y="32">
<path d="M6 10l2-1 7-7-1-1-7 7-1 2zM4.52 13.548c-0.494-1.043-1.026-1.574-2.069-2.069l1.548-4.262 2-1.217 6-6h-3l-6 6-3 10 10-3 6-6v-3l-6 6-1.217 2z"></path>
</svg>
<svg id="icon-paint" width="16" height="16" viewBox="0 0 16 16" x="64" y="32">
<path d="M16 9v-6h-3v-1c0-0.55-0.45-1-1-1h-11c-0.55 0-1 0.45-1 1v3c0 0.55 0.45 1 1 1h11c0.55 0 1-0.45 1-1v-1h2v4h-9v2h-0.5c-0.276 0-0.5 0.224-0.5 0.5v5c0 0.276 0.224 0.5 0.5 0.5h2c0.276 0 0.5-0.224 0.5-0.5v-5c0-0.276-0.224-0.5-0.5-0.5h-0.5v-1h9zM12 3h-11v-1h11v1z"></path>
</svg>
<svg id="icon-music" width="16" height="16" viewBox="0 0 16 16" x="96" y="32">
<path d="M15 0h1v11.5c0 1.381-1.567 2.5-3.5 2.5s-3.5-1.119-3.5-2.5c0-1.381 1.567-2.5 3.5-2.5 0.979 0 1.865 0.287 2.5 0.751v-5.751l-8 1.778v7.722c0 1.381-1.567 2.5-3.5 2.5s-3.5-1.119-3.5-2.5c0-1.381 1.567-2.5 3.5-2.5 0.979 0 1.865 0.287 2.5 0.751v-9.751l9-2z"></path>
</svg>
<svg id="icon-file" width="16" height="16" viewBox="0 0 16 16" x="128" y="32">
<path d="M14.341 3.579c-0.347-0.473-0.831-1.027-1.362-1.558s-1.085-1.015-1.558-1.362c-0.806-0.591-1.197-0.659-1.421-0.659h-7.75c-0.689 0-1.25 0.561-1.25 1.25v13.5c0 0.689 0.561 1.25 1.25 1.25h11.5c0.689 0 1.25-0.561 1.25-1.25v-9.75c0-0.224-0.068-0.615-0.659-1.421zM12.271 2.729c0.48 0.48 0.856 0.912 1.134 1.271h-2.406v-2.405c0.359 0.278 0.792 0.654 1.271 1.134zM14 14.75c0 0.136-0.114 0.25-0.25 0.25h-11.5c-0.135 0-0.25-0.114-0.25-0.25v-13.5c0-0.135 0.115-0.25 0.25-0.25 0 0 7.749-0 7.75 0v3.5c0 0.276 0.224 0.5 0.5 0.5h3.5v9.75z"></path>
</svg>
<svg id="icon-file-text" width="16" height="16" viewBox="0 0 16 16" x="160" y="32">
<path d="M14.341 3.579c-0.347-0.473-0.831-1.027-1.362-1.558s-1.085-1.015-1.558-1.362c-0.806-0.591-1.197-0.659-1.421-0.659h-7.75c-0.689 0-1.25 0.561-1.25 1.25v13.5c0 0.689 0.561 1.25 1.25 1.25h11.5c0.689 0 1.25-0.561 1.25-1.25v-9.75c0-0.224-0.068-0.615-0.659-1.421zM12.271 2.729c0.48 0.48 0.856 0.912 1.134 1.271h-2.406v-2.405c0.359 0.278 0.792 0.654 1.271 1.134zM14 14.75c0 0.136-0.114 0.25-0.25 0.25h-11.5c-0.135 0-0.25-0.114-0.25-0.25v-13.5c0-0.135 0.115-0.25 0.25-0.25 0 0 7.749-0 7.75 0v3.5c0 0.276 0.224 0.5 0.5 0.5h3.5v9.75z"></path>
<path d="M11.5 13h-7c-0.276 0-0.5-0.224-0.5-0.5s0.224-0.5 0.5-0.5h7c0.276 0 0.5 0.224 0.5 0.5s-0.224 0.5-0.5 0.5z"></path>
<path d="M11.5 11h-7c-0.276 0-0.5-0.224-0.5-0.5s0.224-0.5 0.5-0.5h7c0.276 0 0.5 0.224 0.5 0.5s-0.224 0.5-0.5 0.5z"></path>
<path d="M11.5 9h-7c-0.276 0-0.5-0.224-0.5-0.5s0.224-0.5 0.5-0.5h7c0.276 0 0.5 0.224 0.5 0.5s-0.224 0.5-0.5 0.5z"></path>
</svg>
<svg id="icon-copy" width="16" height="16" viewBox="0 0 16 16" x="192" y="32">
<path d="M10 4v-4h-7l-3 3v9h6v4h10v-12h-6zM3 1.414v1.586h-1.586l1.586-1.586zM1 11v-7h3v-3h5v3l-3 3v4h-5zM9 5.414v1.586h-1.586l1.586-1.586zM15 15h-8v-7h3v-3h5v10z"></path>
</svg>
<svg id="icon-folder" width="16" height="16" viewBox="0 0 16 16" x="224" y="32">
<path d="M7 2l2 2h7v11h-16v-13z"></path>
</svg>
<svg id="icon-tag" width="16" height="16" viewBox="0 0 16 16" x="256" y="32">
<path d="M15.25 0h-6c-0.412 0-0.989 0.239-1.28 0.53l-7.439 7.439c-0.292 0.292-0.292 0.769 0 1.061l6.439 6.439c0.292 0.292 0.769 0.292 1.061 0l7.439-7.439c0.292-0.292 0.53-0.868 0.53-1.28v-6c0-0.412-0.338-0.75-0.75-0.75zM11.5 6c-0.828 0-1.5-0.672-1.5-1.5s0.672-1.5 1.5-1.5 1.5 0.672 1.5 1.5-0.672 1.5-1.5 1.5z"></path>
</svg>
<svg id="icon-download" width="16" height="16" viewBox="0 0 16 16" x="288" y="32">
<path d="M8 9l4-4h-3v-4h-2v4h-3zM11.636 7.364l-1.121 1.121 4.064 1.515-6.579 2.453-6.579-2.453 4.064-1.515-1.121-1.121-4.364 1.636v4l8 3 8-3v-4z"></path>
</svg>
<svg id="icon-database" width="16" height="16" viewBox="0 0 16 16" x="320" y="32">
<path d="M8 0c-4.418 0-8 1.119-8 2.5v2c0 1.381 3.582 2.5 8 2.5s8-1.119 8-2.5v-2c0-1.381-3.582-2.5-8-2.5z"></path>
<path d="M8 8.5c-4.418 0-8-1.119-8-2.5v3c0 1.381 3.582 2.5 8 2.5s8-1.119 8-2.5v-3c0 1.381-3.582 2.5-8 2.5z"></path>
<path d="M8 13c-4.418 0-8-1.119-8-2.5v3c0 1.381 3.582 2.5 8 2.5s8-1.119 8-2.5v-3c0 1.381-3.582 2.5-8 2.5z"></path>
</svg>
<svg id="icon-undo" width="16" height="16" viewBox="0 0 16 16" x="352" y="32">
<path d="M11.904 16c1.777-3.219 2.076-8.13-4.904-7.966v3.966l-6-6 6-6v3.881c8.359-0.218 9.29 7.378 4.904 12.119z"></path>
</svg>
<svg id="icon-redo" width="16" height="16" viewBox="0 0 16 16" x="384" y="32">
<path d="M4.096 0c-1.777 3.219-2.076 8.13 4.904 7.966v-3.966l6 6-6 6v-3.881c-8.359 0.218-9.29-7.378-4.904-12.119z"></path>
</svg>
<svg id="icon-bubble" width="16" height="16" viewBox="0 0 16 16" x="416" y="32">
<path d="M8 1c4.418 0 8 2.91 8 6.5s-3.582 6.5-8 6.5c-0.424 0-0.841-0.027-1.247-0.079-1.718 1.718-3.77 2.027-5.753 2.072v-0.421c1.071-0.525 2-1.48 2-2.572 0-0.152-0.012-0.302-0.034-0.448-1.809-1.192-2.966-3.012-2.966-5.052 0-3.59 3.582-6.5 8-6.5z"></path>
</svg>
<svg id="icon-bubbles" width="18" height="16" viewBox="0 0 18 16" x="448" y="32">
<path d="M17 14.081c0 0.711 0.407 1.327 1 1.628v0.249c-0.166 0.023-0.335 0.035-0.508 0.035-1.063 0-2.021-0.446-2.699-1.16-0.41 0.109-0.844 0.168-1.293 0.168-2.485 0-4.5-1.791-4.5-4s2.015-4 4.5-4c2.485 0 4.5 1.791 4.5 4 0 0.865-0.309 1.665-0.834 2.32-0.107 0.232-0.166 0.489-0.166 0.761zM8 0c4.351 0 7.89 2.822 7.997 6.336-0.768-0.343-1.619-0.524-2.497-0.524-1.493 0-2.903 0.523-3.971 1.472-1.107 0.984-1.717 2.304-1.717 3.716 0 0.698 0.149 1.373 0.433 1.997-0.082 0.002-0.164 0.003-0.246 0.003-0.424 0-0.841-0.027-1.247-0.079-1.718 1.718-3.77 2.027-5.753 2.072v-0.421c1.071-0.525 2-1.48 2-2.572 0-0.152-0.012-0.302-0.034-0.448-1.809-1.192-2.966-3.012-2.966-5.052 0-3.59 3.582-6.5 8-6.5z"></path>
</svg>
<svg id="icon-spinner" width="16" height="16" viewBox="0 0 16 16" x="0" y="64">
<path d="M8 4.736c-0.515 0-0.933-0.418-0.933-0.933v-2.798c0-0.515 0.418-0.933 0.933-0.933s0.933 0.418 0.933 0.933v2.798c0 0.515-0.418 0.933-0.933 0.933z"></path>
<path d="M8 15.577c-0.322 0-0.583-0.261-0.583-0.583v-2.798c0-0.322 0.261-0.583 0.583-0.583s0.583 0.261 0.583 0.583v2.798c0 0.322-0.261 0.583-0.583 0.583z"></path>
<path d="M5.902 5.24c-0.302 0-0.596-0.157-0.758-0.437l-1.399-2.423c-0.241-0.418-0.098-0.953 0.32-1.194s0.953-0.098 1.194 0.32l1.399 2.423c0.241 0.418 0.098 0.953-0.32 1.194-0.138 0.079-0.288 0.117-0.436 0.117z"></path>
<path d="M11.498 14.582c-0.181 0-0.358-0.094-0.455-0.262l-1.399-2.423c-0.145-0.251-0.059-0.572 0.192-0.717s0.572-0.059 0.717 0.192l1.399 2.423c0.145 0.251 0.059 0.572-0.192 0.717-0.083 0.048-0.173 0.070-0.262 0.070z"></path>
<path d="M4.365 6.718c-0.138 0-0.279-0.035-0.407-0.109l-2.423-1.399c-0.39-0.225-0.524-0.724-0.299-1.115s0.724-0.524 1.115-0.299l2.423 1.399c0.39 0.225 0.524 0.724 0.299 1.115-0.151 0.262-0.425 0.408-0.707 0.408z"></path>
<path d="M14.057 11.964c-0.079 0-0.159-0.020-0.233-0.063l-2.423-1.399c-0.223-0.129-0.299-0.414-0.171-0.637s0.414-0.299 0.637-0.171l2.423 1.399c0.223 0.129 0.299 0.414 0.171 0.637-0.086 0.15-0.243 0.233-0.404 0.233z"></path>
<path d="M3.803 8.758h-2.798c-0.418 0-0.758-0.339-0.758-0.758s0.339-0.758 0.758-0.758h2.798c0.419 0 0.758 0.339 0.758 0.758s-0.339 0.758-0.758 0.758z"></path>
<path d="M14.995 8.466c-0 0 0 0 0 0h-2.798c-0.258-0-0.466-0.209-0.466-0.466s0.209-0.466 0.466-0.466c0 0 0 0 0 0h2.798c0.258 0 0.466 0.209 0.466 0.466s-0.209 0.466-0.466 0.466z"></path>
<path d="M1.943 12.197c-0.242 0-0.477-0.125-0.606-0.35-0.193-0.335-0.079-0.762 0.256-0.955l2.423-1.399c0.335-0.193 0.762-0.079 0.955 0.256s0.079 0.762-0.256 0.955l-2.423 1.399c-0.11 0.064-0.23 0.094-0.349 0.094z"></path>
<path d="M11.635 6.368c-0.161 0-0.318-0.084-0.404-0.233-0.129-0.223-0.052-0.508 0.171-0.637l2.423-1.399c0.223-0.129 0.508-0.052 0.637 0.171s0.052 0.508-0.171 0.637l-2.423 1.399c-0.073 0.042-0.154 0.063-0.233 0.063z"></path>
<path d="M4.502 14.699c-0.109 0-0.219-0.028-0.32-0.086-0.307-0.177-0.412-0.569-0.235-0.876l1.399-2.423c0.177-0.307 0.569-0.412 0.876-0.235s0.412 0.569 0.235 0.876l-1.399 2.423c-0.119 0.206-0.334 0.321-0.556 0.321z"></path>
<path d="M10.098 4.832c-0.079 0-0.159-0.020-0.233-0.063-0.223-0.129-0.299-0.414-0.171-0.637l1.399-2.423c0.129-0.223 0.414-0.299 0.637-0.171s0.299 0.414 0.171 0.637l-1.399 2.423c-0.086 0.15-0.243 0.233-0.404 0.233z"></path>
</svg>
<svg id="icon-search" width="16" height="16" viewBox="0 0 16 16" x="32" y="64">
<path d="M15.504 13.616l-3.79-3.223c-0.392-0.353-0.811-0.514-1.149-0.499 0.895-1.048 1.435-2.407 1.435-3.893 0-3.314-2.686-6-6-6s-6 2.686-6 6 2.686 6 6 6c1.486 0 2.845-0.54 3.893-1.435-0.016 0.338 0.146 0.757 0.499 1.149l3.223 3.79c0.552 0.613 1.453 0.665 2.003 0.115s0.498-1.452-0.115-2.003zM6 10c-2.209 0-4-1.791-4-4s1.791-4 4-4 4 1.791 4 4-1.791 4-4 4z"></path>
</svg>
<svg id="icon-move" width="16" height="16" viewBox="0 0 16 16" x="64" y="64">
<path d="M16 0h-6.5l2.5 2.5-3 3 1.5 1.5 3-3 2.5 2.5z"></path>
<path d="M16 16v-6.5l-2.5 2.5-3-3-1.5 1.5 3 3-2.5 2.5z"></path>
<path d="M0 16h6.5l-2.5-2.5 3-3-1.5-1.5-3 3-2.5-2.5z"></path>
<path d="M0 0v6.5l2.5-2.5 3 3 1.5-1.5-3-3 2.5-2.5z"></path>
</svg>
<svg id="icon-enlarge" width="16" height="16" viewBox="0 0 16 16" x="96" y="64">
<path d="M16 0v6.5l-2.5-2.5-3 3-1.5-1.5 3-3-2.5-2.5zM7 10.5l-3 3 2.5 2.5h-6.5v-6.5l2.5 2.5 3-3z"></path>
</svg>
<svg id="icon-shrink" width="16" height="16" viewBox="0 0 16 16" x="128" y="64">
<path d="M7 9v6.5l-2.5-2.5-3 3-1.5-1.5 3-3-2.5-2.5zM16 1.5l-3 3 2.5 2.5h-6.5v-6.5l2.5 2.5 3-3z"></path>
</svg>
<svg id="icon-lock" width="16" height="16" viewBox="0 0 16 16" x="160" y="64">
<path d="M9.25 7h-0.25v-3c0-1.654-1.346-3-3-3h-2c-1.654 0-3 1.346-3 3v3h-0.25c-0.412 0-0.75 0.338-0.75 0.75v7.5c0 0.412 0.338 0.75 0.75 0.75h8.5c0.412 0 0.75-0.338 0.75-0.75v-7.5c0-0.412-0.338-0.75-0.75-0.75zM3 4c0-0.551 0.449-1 1-1h2c0.551 0 1 0.449 1 1v3h-4v-3z"></path>
</svg>
<svg id="icon-unlocked" width="16" height="16" viewBox="0 0 16 16" x="192" y="64">
<path d="M12 1c1.654 0 3 1.346 3 3v3h-2v-3c0-0.551-0.449-1-1-1h-2c-0.551 0-1 0.449-1 1v3h0.25c0.412 0 0.75 0.338 0.75 0.75v7.5c0 0.412-0.338 0.75-0.75 0.75h-8.5c-0.412 0-0.75-0.338-0.75-0.75v-7.5c0-0.412 0.338-0.75 0.75-0.75h6.25v-3c0-1.654 1.346-3 3-3h2z"></path>
</svg>
<svg id="icon-tools" width="16" height="16" viewBox="0 0 16 16" x="224" y="64">
<path d="M15.671 12.779l-7.196-6.168c0.335-0.63 0.525-1.348 0.525-2.111 0-2.485-2.015-4.5-4.5-4.5-0.455 0-0.893 0.068-1.307 0.193l2.6 2.6c0.389 0.389 0.389 1.025 0 1.414l-1.586 1.586c-0.389 0.389-1.025 0.389-1.414 0l-2.6-2.6c-0.125 0.414-0.193 0.852-0.193 1.307 0 2.485 2.015 4.5 4.5 4.5 0.763 0 1.482-0.19 2.111-0.525l6.168 7.196c0.358 0.418 0.969 0.441 1.358 0.052l1.586-1.586c0.389-0.389 0.365-1-0.052-1.358z"></path>
</svg>
<svg id="icon-gear" width="16" height="16" viewBox="0 0 16 16" x="256" y="64">
<path d="M14.59 9.535c-0.839-1.454-0.335-3.317 1.127-4.164l-1.572-2.723c-0.449 0.263-0.972 0.414-1.529 0.414-1.68 0-3.042-1.371-3.042-3.062h-3.145c0.004 0.522-0.126 1.051-0.406 1.535-0.839 1.454-2.706 1.948-4.17 1.106l-1.572 2.723c0.453 0.257 0.845 0.634 1.123 1.117 0.838 1.452 0.336 3.311-1.12 4.16l1.572 2.723c0.448-0.261 0.967-0.41 1.522-0.41 1.675 0 3.033 1.362 3.042 3.046h3.145c-0.001-0.517 0.129-1.040 0.406-1.519 0.838-1.452 2.7-1.947 4.163-1.11l1.572-2.723c-0.45-0.257-0.839-0.633-1.116-1.113zM8 11.24c-1.789 0-3.24-1.45-3.24-3.24s1.45-3.24 3.24-3.24c1.789 0 3.24 1.45 3.24 3.24s-1.45 3.24-3.24 3.24z"></path>
</svg>
<svg id="icon-magic-wand" width="16" height="16" viewBox="0 0 16 16" x="288" y="64">
<path d="M4 3l-2-2h-1v1l2 2zM5 0h1v2h-1zM9 5h2v1h-2zM10 2v-1h-1l-2 2 1 1zM0 5h2v1h-2zM5 9h1v2h-1zM1 9v1h1l2-2-1-1zM15.781 13.781l-9.939-9.939c-0.292-0.292-0.769-0.292-1.061 0l-0.939 0.939c-0.292 0.292-0.292 0.769 0 1.061l9.939 9.939c0.292 0.292 0.769 0.292 1.061 0l0.939-0.939c0.292-0.292 0.292-0.769 0-1.061zM7.5 8.5l-3-3 1-1 3 3-1 1z"></path>
</svg>
<svg id="icon-hammer" width="16" height="16" viewBox="0 0 16 16" x="320" y="64">
<path d="M15.784 14.309l-8.572-7.804 0.399-0.4c0.326-0.327 0.503-0.75 0.53-1.181 0.016-0.007 0.031-0.014 0.046-0.023l1.609-1.006c0.218-0.256 0.202-0.66-0.036-0.898l-2.799-2.806c-0.237-0.238-0.641-0.254-0.896-0.036l-1.004 1.614c-0.008 0.015-0.015 0.031-0.022 0.046-0.43 0.027-0.852 0.204-1.178 0.531l-1.522 1.527c-0.327 0.327-0.503 0.75-0.53 1.181-0.016 0.007-0.031 0.014-0.046 0.023l-1.609 1.006c-0.218 0.256-0.202 0.66 0.036 0.898l2.799 2.806c0.237 0.238 0.641 0.254 0.896 0.036l1.004-1.614c0.008-0.015 0.015-0.031 0.023-0.046 0.43-0.027 0.852-0.204 1.178-0.531l0.442-0.443 7.783 8.596c0.226 0.249 0.573 0.289 0.773 0.089l0.787-0.789c0.199-0.2 0.159-0.549-0.089-0.775z"></path>
</svg>
<svg id="icon-magnet" width="16" height="16" viewBox="0 0 16 16" x="352" y="64">
<path d="M14 0h-4l1 9c0 1.657-1.343 3-3 3s-3-1.343-3-3l1-9h-4l-1 9c0 3.866 3.134 7 7 7s7-3.134 7-7l-1-9zM12.154 13.154c-1.11 1.11-2.585 1.721-4.154 1.721s-3.045-0.611-4.154-1.721c-1.096-1.096-1.705-2.548-1.72-4.095l0.564-5.075h1.736l-0.55 4.953v0.062c0 1.102 0.429 2.138 1.208 2.917s1.815 1.208 2.917 1.208 2.138-0.429 2.917-1.208c0.779-0.779 1.208-1.815 1.208-2.917v-0.062l-0.007-0.062-0.543-4.891h1.736l0.564 5.075c-0.015 1.547-0.625 2.999-1.72 4.095z"></path>
</svg>
<svg id="icon-bin" width="16" height="16" viewBox="0 0 16 16" x="384" y="64">
<path d="M3 16h10l1-11h-12zM10 2v-2h-4v2h-5v3l1-1h12l1 1v-3h-5zM9 2h-2v-1h2v1z"></path>
</svg>
<svg id="icon-shield" width="16" height="16" viewBox="0 0 16 16" x="416" y="64">
<path d="M15 0l-7 2-7-2c0 0-0.070 0.808 0 2l7 2.189 7-2.189c0.070-1.192 0-2 0-2zM1.128 3.049c0.375 3.917 1.773 10.504 6.872 12.951 5.099-2.448 6.497-9.034 6.872-12.951l-6.872 2.584-6.872-2.584z"></path>
</svg>
<svg id="icon-list" width="16" height="16" viewBox="0 0 16 16" x="448" y="64">
<path d="M0 0h4v4h-4zM6 1h10v2h-10zM0 6h4v4h-4zM6 7h10v2h-10zM0 12h4v4h-4zM6 13h10v2h-10z"></path>
</svg>
<svg id="icon-menu" width="16" height="16" viewBox="0 0 16 16" x="480" y="64">
<path d="M1 3h14v3h-14zM1 7h14v3h-14zM1 11h14v3h-14z"></path>
</svg>
<svg id="icon-eye" width="16" height="16" viewBox="0 0 16 16" x="0" y="96">
<path d="M8 3c-3.489 0-6.514 2.032-8 5 1.486 2.968 4.511 5 8 5s6.514-2.032 8-5c-1.486-2.968-4.511-5-8-5zM11.945 5.652c0.94 0.6 1.737 1.403 2.335 2.348-0.598 0.946-1.395 1.749-2.335 2.348-1.181 0.753-2.545 1.152-3.944 1.152s-2.763-0.398-3.945-1.152c-0.94-0.6-1.737-1.403-2.335-2.348 0.598-0.946 1.395-1.749 2.335-2.348 0.061-0.039 0.123-0.077 0.185-0.114-0.156 0.427-0.241 0.888-0.241 1.369 0 2.209 1.791 4 4 4s4-1.791 4-4c0-0.481-0.085-0.942-0.241-1.369 0.062 0.037 0.124 0.075 0.185 0.114v0zM8 6.5c0 0.828-0.672 1.5-1.5 1.5s-1.5-0.672-1.5-1.5 0.672-1.5 1.5-1.5 1.5 0.672 1.5 1.5z"></path>
</svg>
<svg id="icon-eye-plus" width="16" height="16" viewBox="0 0 16 16" x="32" y="96">
<path d="M16 2h-2v-2h-2v2h-2v2h2v2h2v-2h2z"></path>
<path d="M13.498 6.969c0.288 0.32 0.55 0.665 0.782 1.031-0.598 0.946-1.395 1.749-2.335 2.348-1.181 0.753-2.545 1.152-3.944 1.152s-2.763-0.398-3.945-1.152c-0.94-0.6-1.736-1.403-2.335-2.348 0.598-0.946 1.395-1.749 2.335-2.348 0.061-0.039 0.123-0.077 0.185-0.114-0.156 0.427-0.241 0.888-0.241 1.369 0 2.209 1.791 4 4 4s4-1.791 4-4c0-0.011-0-0.022-0-0.032-1.708-0.44-2.973-1.979-2.999-3.817-0.329-0.037-0.662-0.057-1.001-0.057-3.489 0-6.514 2.032-8 5 1.486 2.968 4.511 5 8 5s6.514-2.032 8-5c-0.276-0.55-0.604-1.069-0.979-1.548-0.457 0.268-0.973 0.449-1.523 0.517zM6.5 5c0.828 0 1.5 0.672 1.5 1.5s-0.672 1.5-1.5 1.5-1.5-0.672-1.5-1.5 0.672-1.5 1.5-1.5z"></path>
</svg>
<svg id="icon-eye-minus" width="16" height="16" viewBox="0 0 16 16" x="64" y="96">
<path d="M10 2h6v2h-6v-2z"></path>
<path d="M13.599 5h-4.599v-1.944c-0.328-0.037-0.662-0.056-1-0.056-3.489 0-6.514 2.032-8 5 1.486 2.968 4.511 5 8 5s6.514-2.032 8-5c-0.584-1.167-1.407-2.189-2.401-3zM6.5 5c0.828 0 1.5 0.672 1.5 1.5s-0.672 1.5-1.5 1.5-1.5-0.672-1.5-1.5 0.672-1.5 1.5-1.5zM11.944 10.348c-1.181 0.753-2.545 1.152-3.944 1.152s-2.763-0.398-3.945-1.152c-0.94-0.6-1.736-1.403-2.335-2.348 0.598-0.946 1.395-1.749 2.335-2.348 0.061-0.039 0.123-0.077 0.185-0.114-0.156 0.427-0.241 0.888-0.241 1.369 0 2.209 1.791 4 4 4s4-1.791 4-4c0-0.481-0.085-0.942-0.241-1.369 0.062 0.037 0.124 0.075 0.185 0.114 0.94 0.6 1.737 1.403 2.335 2.348-0.598 0.946-1.395 1.749-2.335 2.348z"></path>
</svg>
<svg id="icon-eye-blocked" width="16" height="16" viewBox="0 0 16 16" x="96" y="96">
<path d="M14.78 0.22c-0.293-0.293-0.768-0.293-1.061 0l-3.159 3.159c-0.812-0.246-1.671-0.378-2.561-0.378-3.489 0-6.514 2.032-8 5 0.643 1.283 1.573 2.391 2.703 3.236l-2.484 2.484c-0.293 0.293-0.293 0.768 0 1.061 0.146 0.146 0.338 0.22 0.53 0.22s0.384-0.073 0.53-0.22l13.5-13.5c0.293-0.293 0.293-0.768 0-1.061zM6.5 5c0.66 0 1.22 0.426 1.421 1.019l-1.902 1.902c-0.592-0.201-1.019-0.761-1.019-1.421 0-0.828 0.672-1.5 1.5-1.5zM1.721 8c0.598-0.946 1.395-1.749 2.335-2.348 0.061-0.039 0.123-0.077 0.185-0.114-0.156 0.427-0.241 0.888-0.241 1.369 0 0.858 0.27 1.652 0.73 2.303l-0.952 0.952c-0.819-0.576-1.519-1.311-2.057-2.162z"></path>
<path d="M12 6.906c0-0.424-0.066-0.833-0.189-1.217l-5.028 5.028c0.384 0.123 0.793 0.189 1.217 0.189 2.209 0 4-1.791 4-4z"></path>
<path d="M12.969 4.531l-1.084 1.084c0.020 0.012 0.040 0.024 0.059 0.037 0.94 0.6 1.737 1.403 2.335 2.348-0.598 0.946-1.395 1.749-2.335 2.348-1.181 0.753-2.545 1.152-3.944 1.152-0.604 0-1.202-0.074-1.781-0.219l-1.201 1.201c0.933 0.335 1.937 0.518 2.982 0.518 3.489 0 6.514-2.032 8-5-0.703-1.405-1.752-2.6-3.031-3.469z"></path>
</svg>
<svg id="icon-star-empty" width="16" height="16" viewBox="0 0 16 16" x="128" y="96">
<path d="M16 6.204l-5.528-0.803-2.472-5.009-2.472 5.009-5.528 0.803 4 3.899-0.944 5.505 4.944-2.599 4.944 2.599-0.944-5.505 4-3.899zM8 11.773l-3.492 1.836 0.667-3.888-2.825-2.753 3.904-0.567 1.746-3.537 1.746 3.537 3.904 0.567-2.825 2.753 0.667 3.888-3.492-1.836z"></path>
</svg>
<svg id="icon-star-full" width="16" height="16" viewBox="0 0 16 16" x="160" y="96">
<path d="M16 6.204l-5.528-0.803-2.472-5.009-2.472 5.009-5.528 0.803 4 3.899-0.944 5.505 4.944-2.599 4.944 2.599-0.944-5.505 4-3.899z"></path>
</svg>
<svg id="icon-angry" width="16" height="16" viewBox="0 0 16 16" x="192" y="96">
<path d="M8 16c4.418 0 8-3.582 8-8s-3.582-8-8-8-8 3.582-8 8 3.582 8 8 8zM8 1.5c3.59 0 6.5 2.91 6.5 6.5s-2.91 6.5-6.5 6.5-6.5-2.91-6.5-6.5 2.91-6.5 6.5-6.5zM11.002 12.199c-0.612-1.018-1.727-1.699-3.002-1.699s-2.389 0.681-3.002 1.699l-1.286-0.772c0.874-1.454 2.467-2.427 4.288-2.427s3.414 0.973 4.288 2.427l-1.286 0.772zM11.985 4.379c0.067 0.268-0.096 0.539-0.364 0.606-0.275 0.070-0.602 0.189-0.89 0.334 0.166 0.179 0.268 0.418 0.268 0.681 0 0.552-0.448 1-1 1s-1-0.448-1-1c0-0.018 0.001-0.036 0.002-0.054 0.032-0.741 0.706-1.234 1.275-1.518 0.543-0.271 1.080-0.407 1.102-0.413 0.268-0.067 0.539 0.096 0.606 0.364zM4.015 4.379c0.067-0.268 0.338-0.431 0.606-0.364 0.023 0.006 0.559 0.141 1.102 0.413 0.568 0.284 1.243 0.776 1.275 1.518 0.001 0.018 0.002 0.036 0.002 0.054 0 0.552-0.448 1-1 1s-1-0.448-1-1c0-0.263 0.102-0.503 0.268-0.681-0.288-0.144-0.614-0.264-0.89-0.334-0.268-0.067-0.431-0.338-0.364-0.606z"></path>
</svg>
<svg id="icon-question" width="16" height="16" viewBox="0 0 16 16" x="224" y="96">
<path d="M7 11h2v2h-2zM11 4c0.552 0 1 0.448 1 1v3l-3 2h-2v-1l3-2v-1h-5v-2h6zM8 1.5c-1.736 0-3.369 0.676-4.596 1.904s-1.904 2.86-1.904 4.596c0 1.736 0.676 3.369 1.904 4.596s2.86 1.904 4.596 1.904c1.736 0 3.369-0.676 4.596-1.904s1.904-2.86 1.904-4.596c0-1.736-0.676-3.369-1.904-4.596s-2.86-1.904-4.596-1.904zM8 0v0c4.418 0 8 3.582 8 8s-3.582 8-8 8c-4.418 0-8-3.582-8-8s3.582-8 8-8z"></path>
</svg>
<svg id="icon-plus" width="16" height="16" viewBox="0 0 16 16" x="256" y="96">
<path d="M15.5 6h-5.5v-5.5c0-0.276-0.224-0.5-0.5-0.5h-3c-0.276 0-0.5 0.224-0.5 0.5v5.5h-5.5c-0.276 0-0.5 0.224-0.5 0.5v3c0 0.276 0.224 0.5 0.5 0.5h5.5v5.5c0 0.276 0.224 0.5 0.5 0.5h3c0.276 0 0.5-0.224 0.5-0.5v-5.5h5.5c0.276 0 0.5-0.224 0.5-0.5v-3c0-0.276-0.224-0.5-0.5-0.5z"></path>
</svg>
<svg id="icon-minus" width="16" height="16" viewBox="0 0 16 16" x="288" y="96">
<path d="M0 6.5v3c0 0.276 0.224 0.5 0.5 0.5h15c0.276 0 0.5-0.224 0.5-0.5v-3c0-0.276-0.224-0.5-0.5-0.5h-15c-0.276 0-0.5 0.224-0.5 0.5z"></path>
</svg>
<svg id="icon-info" width="16" height="16" viewBox="0 0 16 16" x="320" y="96">
<path d="M7 4.75c0-0.412 0.338-0.75 0.75-0.75h0.5c0.412 0 0.75 0.338 0.75 0.75v0.5c0 0.412-0.338 0.75-0.75 0.75h-0.5c-0.412 0-0.75-0.338-0.75-0.75v-0.5z"></path>
<path d="M10 12h-4v-1h1v-3h-1v-1h3v4h1z"></path>
<path d="M8 0c-4.418 0-8 3.582-8 8s3.582 8 8 8 8-3.582 8-8-3.582-8-8-8zM8 14.5c-3.59 0-6.5-2.91-6.5-6.5s2.91-6.5 6.5-6.5 6.5 2.91 6.5 6.5-2.91 6.5-6.5 6.5z"></path>
</svg>
<svg id="icon-blocked" width="16" height="16" viewBox="0 0 16 16" x="352" y="96">
<path d="M13.657 2.343c-1.511-1.511-3.52-2.343-5.657-2.343s-4.146 0.832-5.657 2.343c-1.511 1.511-2.343 3.52-2.343 5.657s0.832 4.146 2.343 5.657c1.511 1.511 3.52 2.343 5.657 2.343s4.146-0.832 5.657-2.343c1.511-1.511 2.343-3.52 2.343-5.657s-0.832-4.146-2.343-5.657zM14 8c0 1.294-0.412 2.494-1.111 3.475l-8.364-8.364c0.981-0.699 2.181-1.111 3.475-1.111 3.308 0 6 2.692 6 6zM2 8c0-1.294 0.412-2.494 1.111-3.475l8.364 8.364c-0.981 0.699-2.181 1.111-3.475 1.111-3.308 0-6-2.692-6-6z"></path>
</svg>
<svg id="icon-cross" width="16" height="16" viewBox="0 0 16 16" x="384" y="96">
<path d="M15.854 12.854c-0-0-0-0-0-0l-4.854-4.854 4.854-4.854c0-0 0-0 0-0 0.052-0.052 0.090-0.113 0.114-0.178 0.066-0.178 0.028-0.386-0.114-0.529l-2.293-2.293c-0.143-0.143-0.351-0.181-0.529-0.114-0.065 0.024-0.126 0.062-0.178 0.114 0 0-0 0-0 0l-4.854 4.854-4.854-4.854c-0-0-0-0-0-0-0.052-0.052-0.113-0.090-0.178-0.114-0.178-0.066-0.386-0.029-0.529 0.114l-2.293 2.293c-0.143 0.143-0.181 0.351-0.114 0.529 0.024 0.065 0.062 0.126 0.114 0.178 0 0 0 0 0 0l4.854 4.854-4.854 4.854c-0 0-0 0-0 0-0.052 0.052-0.090 0.113-0.114 0.178-0.066 0.178-0.029 0.386 0.114 0.529l2.293 2.293c0.143 0.143 0.351 0.181 0.529 0.114 0.065-0.024 0.126-0.062 0.178-0.114 0-0 0-0 0-0l4.854-4.854 4.854 4.854c0 0 0 0 0 0 0.052 0.052 0.113 0.090 0.178 0.114 0.178 0.066 0.386 0.029 0.529-0.114l2.293-2.293c0.143-0.143 0.181-0.351 0.114-0.529-0.024-0.065-0.062-0.126-0.114-0.178z"></path>
</svg>
<svg id="icon-checkmark" width="16" height="16" viewBox="0 0 16 16" x="416" y="96">
<path d="M13.5 2l-7.5 7.5-3.5-3.5-2.5 2.5 6 6 10-10z"></path>
</svg>
<svg id="icon-enter" width="16" height="16" viewBox="0 0 16 16" x="448" y="96">
<path d="M6 8h-5v-2h5v-2l3 3-3 3zM16 0v13l-6 3v-3h-6v-4h1v3h5v-9l4-2h-9v4h-1v-5z"></path>
</svg>
<svg id="icon-exit" width="16" height="16" viewBox="0 0 16 16" x="480" y="96">
<path d="M12 10v-2h-5v-2h5v-2l3 3zM11 9v4h-5v3l-6-3v-13h11v5h-1v-4h-8l4 2v9h4v-3z"></path>
</svg>
<svg id="icon-play" width="16" height="16" viewBox="0 0 16 16" x="0" y="128">
<path d="M3 2l10 6-10 6z"></path>
</svg>
<svg id="icon-pause" width="16" height="16" viewBox="0 0 16 16" x="32" y="128">
<path d="M2 2h5v12h-5zM9 2h5v12h-5z"></path>
</svg>
<svg id="icon-backward" width="16" height="16" viewBox="0 0 16 16" x="64" y="128">
<path d="M9 2.5v5l5-5v11l-5-5v5l-5.5-5.5z"></path>
</svg>
<svg id="icon-forward" width="16" height="16" viewBox="0 0 16 16" x="96" y="128">
<path d="M8 13.5v-5l-5 5v-11l5 5v-5l5.5 5.5z"></path>
</svg>
<svg id="icon-volume" width="16" height="16" viewBox="0 0 16 16" x="128" y="128">
<path d="M11.243 12.993c-0.192 0-0.384-0.073-0.53-0.22-0.293-0.293-0.293-0.768 0-1.061 2.047-2.047 2.047-5.378 0-7.425-0.293-0.293-0.293-0.768 0-1.061s0.768-0.293 1.061 0c1.275 1.275 1.977 2.97 1.977 4.773s-0.702 3.498-1.977 4.773c-0.146 0.146-0.338 0.22-0.53 0.22v0zM8.578 11.578c-0.192 0-0.384-0.073-0.53-0.22-0.293-0.293-0.293-0.768 0-1.061 1.267-1.267 1.267-3.329 0-4.596-0.293-0.293-0.293-0.768 0-1.061s0.768-0.293 1.061 0c1.852 1.852 1.852 4.865 0 6.718-0.146 0.146-0.338 0.22-0.53 0.22z"></path>
<path d="M6.5 15c-0.13 0-0.258-0.051-0.354-0.146l-3.854-3.854h-1.793c-0.276 0-0.5-0.224-0.5-0.5v-5c0-0.276 0.224-0.5 0.5-0.5h1.793l3.854-3.854c0.143-0.143 0.358-0.186 0.545-0.108s0.309 0.26 0.309 0.462v13c0 0.202-0.122 0.385-0.309 0.462-0.062 0.026-0.127 0.038-0.191 0.038z"></path>
</svg>
<svg id="icon-volume-mute" width="16" height="16" viewBox="0 0 16 16" x="160" y="128">
<path d="M15 9.674v1.326h-1.326l-1.674-1.674-1.674 1.674h-1.326v-1.326l1.674-1.674-1.674-1.674v-1.326h1.326l1.674 1.674 1.674-1.674h1.326v1.326l-1.674 1.674 1.674 1.674z"></path>
<path d="M6.5 15c-0.13 0-0.258-0.051-0.354-0.146l-3.854-3.854h-1.793c-0.276 0-0.5-0.224-0.5-0.5v-5c0-0.276 0.224-0.5 0.5-0.5h1.793l3.854-3.854c0.143-0.143 0.358-0.186 0.545-0.108s0.309 0.26 0.309 0.462v13c0 0.202-0.122 0.385-0.309 0.462-0.062 0.026-0.127 0.038-0.191 0.038z"></path>
</svg>
<svg id="icon-code" width="20" height="16" viewBox="0 0 20 16" x="192" y="128">
<path d="M13 11.5l1.5 1.5 5-5-5-5-1.5 1.5 3.5 3.5z"></path>
<path d="M7 4.5l-1.5-1.5-5 5 5 5 1.5-1.5-3.5-3.5z"></path>
<path d="M10.958 2.352l1.085 0.296-3 11-1.085-0.296 3-11z"></path>
</svg>
</svg>
