<?xml version="1.0" encoding="utf-8"?>
<!-- Generated by IcoMoon.io -->
<!DOCTYPE svg PUBLIC "-//W3C//DTD SVG 1.1//EN" "http://www.w3.org/Graphics/SVG/1.1/DTD/svg11.dtd">
<svg version="1.1" xmlns="http://www.w3.org/2000/svg" xmlns:xlink="http://www.w3.org/1999/xlink" width="560" height="56" viewBox="0 0 560 56">
<svg id="icon-latex" width="20" height="20" viewBox="0 0 20 20" x="0" y="0">
<path fill="#000" d="M4.868 9.951c0 0-0.188 0-0.188 0-0.075 0.768-0.181 1.702-1.506 1.702 0 0-0.61 0-0.61 0-0.354 0-0.369-0.053-0.369-0.301 0 0 0-3.998 0-3.998 0-0.256 0-0.361 0.708-0.361 0 0 0.248 0 0.248 0s0-0.226 0-0.226c-0.271 0.023-0.949 0.023-1.258 0.023-0.294 0-0.881 0-1.137-0.023 0 0 0 0.226 0 0.226s0.173 0 0.173 0c0.58 0 0.595 0.083 0.595 0.354 0 0 0 3.953 0 3.953 0 0.271-0.015 0.354-0.595 0.354 0 0-0.173 0-0.173 0s0 0.233 0 0.233c0 0 3.908 0 3.908 0s0.203-1.935 0.203-1.935z"></path>
<path d="M4.74 6.758c-0.030-0.090-0.045-0.12-0.143-0.12s-0.12 0.030-0.151 0.12c0 0-1.212 3.072-1.212 3.072-0.053 0.128-0.143 0.361-0.61 0.361 0 0 0 0.188 0 0.188s1.167 0 1.167 0c0 0 0-0.188 0-0.188-0.233 0-0.377-0.105-0.377-0.256 0-0.038 0.008-0.053 0.023-0.105 0 0 0.256-0.648 0.256-0.648s1.491 0 1.491 0c0 0 0.301 0.768 0.301 0.768 0.015 0.030 0.030 0.068 0.030 0.090 0 0.151-0.286 0.151-0.429 0.151 0 0 0 0.188 0 0.188s1.483 0 1.483 0c0 0 0-0.188 0-0.188s-0.105 0-0.105 0c-0.354 0-0.392-0.053-0.444-0.203 0 0-1.28-3.23-1.28-3.23zM4.439 7.293c0 0 0.67 1.702 0.67 1.702s-1.34 0-1.34 0c0 0 0.67-1.702 0.67-1.702z"></path>
<path d="M10.772 6.811c0 0-4.586 0-4.586 0s-0.136 1.687-0.136 1.687c0 0 0.181 0 0.181 0 0.105-1.212 0.218-1.461 1.355-1.461 0.136 0 0.331 0 0.407 0.015 0.158 0.030 0.158 0.113 0.158 0.286 0 0 0 3.953 0 3.953 0 0.256 0 0.361-0.791 0.361 0 0-0.301 0-0.301 0s0 0.233 0 0.233c0.309-0.023 1.069-0.023 1.416-0.023s1.122 0 1.431 0.023c0 0 0-0.233 0-0.233s-0.301 0-0.301 0c-0.791 0-0.791-0.105-0.791-0.361 0 0 0-3.953 0-3.953 0-0.151 0-0.256 0.136-0.286 0.083-0.015 0.286-0.015 0.429-0.015 1.13 0 1.242 0.248 1.348 1.461 0 0 0.188 0 0.188 0s-0.143-1.687-0.143-1.687z"></path>
<path d="M14.808 11.645c0 0-0.188 0-0.188 0-0.188 1.152-0.361 1.702-1.649 1.702 0 0-0.994 0-0.994 0-0.354 0-0.369-0.053-0.369-0.301 0 0 0-2.003 0-2.003s0.67 0 0.67 0c0.73 0 0.813 0.241 0.813 0.881 0 0 0.188 0 0.188 0s0-1.988 0-1.988c0 0-0.188 0-0.188 0 0 0.64-0.083 0.873-0.813 0.873 0 0-0.67 0-0.67 0s0-1.8 0-1.8c0-0.248 0.015-0.301 0.369-0.301 0 0 0.964 0 0.964 0 1.152 0 1.348 0.414 1.468 1.461 0 0 0.188 0 0.188 0s-0.211-1.687-0.211-1.687c0 0-4.217 0-4.217 0s0 0.226 0 0.226c0 0 0.173 0 0.173 0 0.58 0 0.595 0.083 0.595 0.354 0 0 0 3.931 0 3.931 0 0.271-0.015 0.354-0.595 0.354 0 0-0.173 0-0.173 0s0 0.233 0 0.233c0 0 4.322 0 4.322 0s0.316-1.935 0.316-1.935z"></path>
<path d="M17.075 8.987c0 0 1.032-1.506 1.032-1.506 0.158-0.241 0.414-0.482 1.084-0.489 0 0 0-0.226 0-0.226s-1.792 0-1.792 0c0 0 0 0.226 0 0.226 0.301 0.008 0.467 0.173 0.467 0.346 0 0.075-0.015 0.090-0.068 0.173 0 0-0.858 1.265-0.858 1.265s-0.964-1.446-0.964-1.446c-0.015-0.023-0.053-0.083-0.053-0.113 0-0.090 0.166-0.218 0.482-0.226 0 0 0-0.226 0-0.226-0.256 0.023-0.806 0.023-1.092 0.023-0.233 0-0.7-0.008-0.979-0.023 0 0 0 0.226 0 0.226s0.143 0 0.143 0c0.414 0 0.557 0.053 0.7 0.264 0 0 1.378 2.086 1.378 2.086s-1.227 1.815-1.227 1.815c-0.105 0.151-0.331 0.497-1.084 0.497 0 0 0 0.233 0 0.233s1.792 0 1.792 0c0 0 0-0.233 0-0.233-0.346-0.008-0.474-0.211-0.474-0.346 0-0.068 0.023-0.098 0.075-0.181 0 0 1.062-1.574 1.062-1.574s1.19 1.792 1.19 1.792c0.015 0.030 0.038 0.060 0.038 0.083 0 0.090-0.166 0.218-0.489 0.226 0 0 0 0.233 0 0.233 0.264-0.023 0.813-0.023 1.092-0.023 0.316 0 0.663 0.008 0.979 0.023 0 0 0-0.233 0-0.233s-0.143 0-0.143 0c-0.392 0-0.55-0.038-0.708-0.271 0 0-1.581-2.395-1.581-2.395z"></path>
</svg>
<svg id="icon-list-item" width="20" height="20" viewBox="0 0 20 20" x="36" y="0">
<path fill="#000" d="M0 0v0 5zM0 1.25v0 2.5zM0 7.5h5v5h-5zM7.5 8.75h12.5v2.5h-12.5zM0 15v0 5zM0 16.25v0 0z"></path>
</svg>
<svg id="icon-quotes-left" width="20" height="20" viewBox="0 0 20 20" x="0" y="36">
<path d="M4.395 8.75c2.416 0 4.375 1.959 4.375 4.375s-1.959 4.375-4.375 4.375-4.375-1.959-4.375-4.375l-0.020-0.625c0-4.832 3.917-8.75 8.75-8.75v2.5c-1.669 0-3.239 0.65-4.419 1.831-0.227 0.227-0.435 0.469-0.622 0.723 0.223-0.035 0.452-0.054 0.686-0.054zM15.645 8.75c2.416 0 4.375 1.959 4.375 4.375s-1.959 4.375-4.375 4.375-4.375-1.959-4.375-4.375l-0.020-0.625c0-4.832 3.918-8.75 8.75-8.75v2.5c-1.669 0-3.239 0.65-4.419 1.831-0.227 0.227-0.435 0.469-0.622 0.723 0.223-0.035 0.452-0.054 0.686-0.054z"></path>
</svg>
<svg id="icon-list-numbered" width="20" height="20" viewBox="0 0 20 20" x="36" y="36">
<path d="M7.5 16.25h12.5v2.5h-12.5zM7.5 8.75h12.5v2.5h-12.5zM7.5 1.25h12.5v2.5h-12.5zM3.75 0v5h-1.25v-3.75h-1.25v-1.25zM2.5 10.273v0.977h2.5v1.25h-3.75v-2.852l2.5-1.172v-0.977h-2.5v-1.25h3.75v2.852zM5 13.75v6.25h-3.75v-1.25h2.5v-1.25h-2.5v-1.25h2.5v-1.25h-2.5v-1.25z"></path>
</svg>
<svg id="icon-list" width="20" height="20" viewBox="0 0 20 20" x="72" y="36">
<path d="M0 0h5v5h-5zM7.5 1.25h12.5v2.5h-12.5zM0 7.5h5v5h-5zM7.5 8.75h12.5v2.5h-12.5zM0 15h5v5h-5zM7.5 16.25h12.5v2.5h-12.5z"></path>
</svg>
<svg id="icon-eye-blocked" width="20" height="20" viewBox="0 0 20 20" x="108" y="36">
<path d="M18.475 0.275c-0.366-0.366-0.96-0.366-1.326 0l-3.949 3.949c-1.014-0.308-2.089-0.473-3.201-0.473-4.362 0-8.142 2.54-10 6.25 0.803 1.604 1.966 2.989 3.379 4.045l-3.105 3.105c-0.366 0.366-0.366 0.96 0 1.326 0.183 0.183 0.423 0.275 0.663 0.275s0.48-0.092 0.663-0.275l16.875-16.875c0.366-0.366 0.366-0.96 0-1.326zM8.125 6.25c0.825 0 1.525 0.533 1.776 1.273l-2.377 2.377c-0.74-0.251-1.273-0.951-1.273-1.776 0-1.036 0.839-1.875 1.875-1.875zM2.151 10c0.748-1.182 1.744-2.186 2.919-2.935 0.077-0.049 0.154-0.096 0.232-0.143-0.195 0.534-0.301 1.11-0.301 1.711 0 1.072 0.338 2.065 0.912 2.879l-1.19 1.19c-1.024-0.72-1.898-1.638-2.571-2.702z"></path>
<path d="M15 8.633c0-0.531-0.083-1.042-0.236-1.521l-6.285 6.285c0.48 0.153 0.991 0.236 1.522 0.236 2.761 0 5-2.239 5-5z"></path>
<path d="M16.211 5.664l-1.355 1.355c0.025 0.015 0.049 0.031 0.074 0.046 1.175 0.749 2.171 1.753 2.919 2.935-0.748 1.182-1.744 2.186-2.919 2.935-1.476 0.942-3.181 1.44-4.931 1.44-0.755 0-1.502-0.093-2.226-0.274l-1.502 1.502c1.166 0.419 2.421 0.647 3.728 0.647 4.362 0 8.142-2.54 10-6.25-0.879-1.756-2.19-3.25-3.789-4.336z"></path>
</svg>
<svg id="icon-bold" width="20" height="20" viewBox="0 0 20 20" x="144" y="36">
<path d="M13.826 9.466c0.732-0.87 1.174-1.992 1.174-3.216 0-2.757-2.243-5-5-5h-6.25v17.5h7.5c2.757 0 5-2.243 5-5 0-1.816-0.973-3.408-2.424-4.284zM7.5 3.75h1.982c1.093 0 1.982 1.121 1.982 2.5s-0.889 2.5-1.982 2.5h-1.982v-5zM10.605 16.25h-3.105v-5h3.105c1.142 0 2.070 1.121 2.070 2.5s-0.929 2.5-2.070 2.5z"></path>
</svg>
<svg id="icon-underline" width="20" height="20" viewBox="0 0 20 20" x="180" y="36">
<path d="M13.75 1.25h2.5v8.125c0 3.107-2.798 5.625-6.25 5.625s-6.25-2.518-6.25-5.625v-8.125h2.5v8.125c0 0.784 0.356 1.537 1.003 2.119 0.721 0.649 1.696 1.006 2.747 1.006s2.026-0.357 2.747-1.006c0.647-0.582 1.003-1.335 1.003-2.119v-8.125zM3.75 16.25h12.5v2.5h-12.5z"></path>
</svg>
<svg id="icon-italic" width="20" height="20" viewBox="0 0 20 20" x="216" y="36">
<path d="M17.5 1.25v1.25h-2.5l-6.25 15h2.5v1.25h-8.75v-1.25h2.5l6.25-15h-2.5v-1.25z"></path>
</svg>
<svg id="icon-strikethrough" width="20" height="20" viewBox="0 0 20 20" x="252" y="36">
<path d="M20 10v1.25h-4.58c0.537 0.752 0.83 1.615 0.83 2.5 0 1.384-0.716 2.715-1.964 3.652-1.159 0.869-2.681 1.348-4.286 1.348s-3.126-0.479-4.286-1.348c-1.248-0.936-1.964-2.267-1.964-3.652h2.5c0 1.355 1.717 2.5 3.75 2.5s3.75-1.145 3.75-2.5c0-1.355-1.717-2.5-3.75-2.5h-10v-1.25h5.85c-0.046-0.032-0.091-0.065-0.136-0.098-1.248-0.936-1.964-2.267-1.964-3.652s0.716-2.715 1.964-3.652c1.159-0.869 2.681-1.348 4.286-1.348s3.126 0.479 4.286 1.348c1.248 0.936 1.964 2.267 1.964 3.652h-2.5c0-1.355-1.717-2.5-3.75-2.5s-3.75 1.145-3.75 2.5c0 1.355 1.717 2.5 3.75 2.5 1.543 0 3.009 0.443 4.15 1.25h5.85z"></path>
</svg>
<svg id="icon-superscript" width="20" height="20" viewBox="0 0 20 20" x="288" y="36">
<path d="M15 4.023v0.977h2.5v1.25h-3.75v-2.852l2.5-1.172v-0.977h-2.5v-1.25h3.75v2.852zM13.203 5h-2.656l-3.672 3.672-3.672-3.672h-2.656l5 5-5 5h2.656l3.672-3.672 3.672 3.672h2.656l-5-5z"></path>
</svg>
<svg id="icon-subscript" width="20" height="20" viewBox="0 0 20 20" x="324" y="36">
<path d="M15 17.773v0.977h2.5v1.25h-3.75v-2.852l2.5-1.172v-0.977h-2.5v-1.25h3.75v2.852zM13.203 5h-2.656l-3.672 3.672-3.672-3.672h-2.656l5 5-5 5h2.656l3.672-3.672 3.672 3.672h2.656l-5-5z"></path>
</svg>
<svg id="icon-share" width="20" height="20" viewBox="0 0 20 20" x="360" y="36">
<path d="M5 12.5c0 0 1.149-3.75 7.5-3.75v3.75l7.5-5-7.5-5v3.75c-5 0-7.5 3.119-7.5 6.25zM13.75 15h-11.25v-7.5h2.459c0.197-0.233 0.408-0.456 0.635-0.668 0.859-0.804 1.886-1.419 3.049-1.832h-8.642v12.5h16.25v-5.247l-2.5 1.667v1.080z"></path>
</svg>
<svg id="icon-code" width="25" height="20" viewBox="0 0 25 20" x="396" y="36">
<path d="M16.25 14.375l1.875 1.875 6.25-6.25-6.25-6.25-1.875 1.875 4.375 4.375z"></path>
<path d="M8.75 5.625l-1.875-1.875-6.25 6.25 6.25 6.25 1.875-1.875-4.375-4.375z"></path>
<path d="M13.697 2.94l1.357 0.37-3.75 13.751-1.357-0.37 3.75-13.751z"></path>
</svg>
</svg>
