<?xml version="1.0" encoding="utf-8"?>
<!-- Generated by IcoMoon.io -->
<!DOCTYPE svg PUBLIC "-//W3C//DTD SVG 1.1//EN" "http://www.w3.org/Graphics/SVG/1.1/DTD/svg11.dtd">
<svg version="1.1" xmlns="http://www.w3.org/2000/svg" xmlns:xlink="http://www.w3.org/1999/xlink" width="624" height="24" viewBox="0 0 624 24">
<svg id="icon-archive" width="27" height="24" viewBox="0 0 27 24" x="0" y="0">
<path d="M5.25 3h-4.5c-0.413 0-0.75 0.338-0.75 0.75v16.5c0 0.413 0.338 0.75 0.75 0.75h4.5c0.412 0 0.75-0.337 0.75-0.75v-16.5c0-0.412-0.338-0.75-0.75-0.75zM4.5 7.5h-3v-1.5h3v1.5z"></path>
<path d="M12.75 3h-4.5c-0.413 0-0.75 0.338-0.75 0.75v16.5c0 0.413 0.337 0.75 0.75 0.75h4.5c0.413 0 0.75-0.337 0.75-0.75v-16.5c0-0.412-0.337-0.75-0.75-0.75zM12 7.5h-3v-1.5h3v1.5z"></path>
<path d="M17.932 4.16l-4.019 2.025c-0.368 0.186-0.518 0.639-0.332 1.007l6.749 13.396c0.186 0.368 0.639 0.518 1.007 0.332l4.019-2.025c0.368-0.186 0.518-0.639 0.332-1.007l-6.749-13.396c-0.186-0.368-0.639-0.518-1.007-0.332z"></path>
<path d="M21.75 20.25c0 0.414-0.336 0.75-0.75 0.75s-0.75-0.336-0.75-0.75c0-0.414 0.336-0.75 0.75-0.75s0.75 0.336 0.75 0.75z"></path>
</svg>
<svg id="icon-spinner" width="24" height="24" viewBox="0 0 24 24" x="40" y="0">
<path d="M12 7.104c-0.773 0-1.399-0.626-1.399-1.399v-4.197c0-0.773 0.626-1.399 1.399-1.399s1.399 0.626 1.399 1.399v4.197c0 0.773-0.626 1.399-1.399 1.399z"></path>
<path d="M12 23.366c-0.483 0-0.874-0.391-0.874-0.874v-4.197c0-0.483 0.391-0.874 0.874-0.874s0.874 0.391 0.874 0.874v4.197c0 0.483-0.391 0.874-0.874 0.874z"></path>
<path d="M8.854 7.86c-0.453 0-0.894-0.235-1.137-0.656l-2.098-3.634c-0.362-0.627-0.147-1.429 0.48-1.792s1.429-0.147 1.792 0.48l2.098 3.634c0.362 0.627 0.147 1.429-0.48 1.792-0.206 0.119-0.432 0.176-0.655 0.176z"></path>
<path d="M17.247 21.873c-0.272 0-0.536-0.141-0.682-0.394l-2.098-3.634c-0.217-0.376-0.088-0.858 0.288-1.075s0.858-0.088 1.075 0.288l2.098 3.634c0.217 0.376 0.088 0.858-0.288 1.075-0.124 0.071-0.259 0.106-0.393 0.106z"></path>
<path d="M6.547 10.077c-0.208 0-0.418-0.053-0.611-0.164l-3.635-2.098c-0.585-0.338-0.786-1.087-0.448-1.672s1.087-0.786 1.672-0.448l3.634 2.098c0.585 0.338 0.786 1.087 0.448 1.672-0.227 0.393-0.638 0.612-1.061 0.612z"></path>
<path d="M21.085 17.945c-0.119 0-0.239-0.030-0.349-0.094l-3.634-2.098c-0.335-0.193-0.449-0.621-0.256-0.956s0.621-0.449 0.955-0.256l3.634 2.098c0.335 0.193 0.449 0.621 0.256 0.955-0.13 0.224-0.365 0.35-0.606 0.35z"></path>
<path d="M5.705 13.137h-4.197c-0.628 0-1.137-0.509-1.137-1.137s0.509-1.137 1.137-1.137h4.197c0.628 0 1.137 0.509 1.137 1.137s-0.509 1.137-1.137 1.137z"></path>
<path d="M22.492 12.699c-0 0 0 0 0 0h-4.197c-0.386-0-0.699-0.313-0.699-0.699s0.313-0.699 0.699-0.699c0 0 0 0 0 0h4.197c0.386 0 0.699 0.313 0.699 0.699s-0.313 0.699-0.699 0.699z"></path>
<path d="M2.915 18.295c-0.363 0-0.715-0.188-0.91-0.525-0.29-0.502-0.118-1.144 0.384-1.433l3.635-2.098c0.502-0.29 1.144-0.118 1.433 0.384s0.118 1.144-0.384 1.433l-3.634 2.098c-0.165 0.095-0.346 0.141-0.524 0.141z"></path>
<path d="M17.452 9.552c-0.242 0-0.477-0.125-0.606-0.35-0.193-0.335-0.079-0.762 0.256-0.956l3.634-2.098c0.335-0.193 0.762-0.079 0.956 0.256s0.079 0.762-0.256 0.956l-3.634 2.098c-0.11 0.064-0.23 0.094-0.349 0.094z"></path>
<path d="M6.753 22.048c-0.163 0-0.329-0.042-0.48-0.129-0.46-0.266-0.618-0.854-0.352-1.314l2.098-3.634c0.266-0.46 0.854-0.618 1.314-0.352s0.618 0.854 0.352 1.314l-2.098 3.634c-0.178 0.309-0.501 0.481-0.834 0.481z"></path>
<path d="M15.147 7.248c-0.119 0-0.239-0.030-0.349-0.094-0.335-0.193-0.449-0.621-0.256-0.955l2.098-3.634c0.193-0.335 0.621-0.449 0.955-0.256s0.449 0.621 0.256 0.955l-2.098 3.634c-0.13 0.224-0.365 0.35-0.606 0.35z"></path>
</svg>
<svg id="icon-update" width="24" height="24" viewBox="0 0 24 24" x="80" y="0">
<path d="M24 9h-9l3.364-3.364c-1.7-1.7-3.96-2.636-6.364-2.636s-4.664 0.936-6.364 2.636c-1.7 1.7-2.636 3.96-2.636 6.364s0.936 4.664 2.636 6.364c1.7 1.7 3.96 2.636 6.364 2.636s4.664-0.936 6.364-2.636c0.142-0.142 0.278-0.288 0.409-0.438l2.258 1.975c-2.2 2.512-5.43 4.098-9.031 4.098-6.627 0-12-5.373-12-12s5.373-12 12-12c3.314 0 6.313 1.344 8.485 3.515l3.515-3.515v9z"></path>
</svg>
<svg id="icon-arrow-left" width="24" height="24" viewBox="0 0 24 24" x="120" y="0">
<path d="M0.75 12l11.25 11.25v-6.75h12v-9h-12v-6.75z"></path>
</svg>
<svg id="icon-table" width="24" height="24" viewBox="0 0 24 24" x="160" y="0">
<path d="M0 1.5v21h24v-21h-24zM9 15v-4.5h6v4.5h-6zM15 16.5v4.5h-6v-4.5h6zM15 4.5v4.5h-6v-4.5h6zM7.5 4.5v4.5h-6v-4.5h6zM1.5 10.5h6v4.5h-6v-4.5zM16.5 10.5h6v4.5h-6v-4.5zM16.5 9v-4.5h6v4.5h-6zM1.5 16.5h6v4.5h-6v-4.5zM16.5 21v-4.5h6v4.5h-6z"></path>
</svg>
<svg id="icon-rss" width="24" height="24" viewBox="0 0 24 24" x="200" y="0">
<path d="M3.194 17.6c-1.762 0-3.194 1.438-3.194 3.189 0 1.761 1.432 3.183 3.194 3.183 1.769 0 3.199-1.421 3.199-3.183-0-1.752-1.43-3.189-3.199-3.189zM0.004 8.155v4.6c2.995 0 5.812 1.171 7.933 3.293 2.118 2.117 3.288 4.946 3.288 7.952h4.62c-0-8.738-7.108-15.845-15.841-15.845zM0.009 0v4.602c10.682 0 19.377 8.703 19.377 19.398h4.614c0-13.23-10.764-24-23.991-24z"></path>
</svg>
</svg>
